[img]http://img43.imageshack.us/img43/932/immortalsbluray320x200.jpg[/img]
 
http://www.imdb.com/title/tt1253864/

Source: Immortals (2011) BDRip 1080p DTS multisub Highcode- PHD Thanks!

Subs: Arabic, Czech, Danish, Dutch, English, Finnish, French, Greek, Hungarian, Norwegian, Persian, Polish, Portuguese, Romanian, Servian, Spanish, Turkish.

Sample and Screens included.

General
Complete name                            : Immortals 2011 720p BRRip x264 MP4 AAC-CC.mp4
Format                                   : MPEG-4
Format profile                           : Base Media
Codec ID                                 : isom
File size                                : 2.89 GiB
Duration                                 : 1h 50mn
Overall bit rate mode                    : Variable
Overall bit rate                         : 3 743 Kbps
Encoded date                             : UTC 2013-04-20 07:48:39
Tagged date                              : UTC 2013-04-20 07:48:39
Writing application                      : Yamb 2.1.0.0 

Video
ID                                       : 1
Format                                   : AVC
Format/Info                              : Advanced Video Codec
Format profile                           : High@L4.1
Format settings, CABAC                   : Yes
Format settings, ReFrames                : 5 frames
Codec ID                                 : avc1
Codec ID/Info                            : Advanced Video Coding
Duration                                 : 1h 50mn
Bit rate                                 : 3 384 Kbps
Maximum bit rate                         : 20.8 Mbps
Width                                    : 1 280 pixels
Height                                   : 692 pixels
Display aspect ratio                     : 1.85:1
Frame rate mode                          : Variable
Frame rate                               : 23.976 fps
Minimum frame rate                       : 19.048 fps
Maximum frame rate                       : 24.390 fps
Color space                              : YUV
Chroma subsampling                       : 4:2:0
Bit depth                                : 8 bits
Scan type                                : Progressive
Bits/(Pixel*Frame)                       : 0.159
Stream size                              : 2.59 GiB (90%)
Writing library                          : x264 core 112
Encoding settings                        : cabac=1 / ref=5 / deblock=1:0:0 / analyse=0x3:0x113 / me=hex / subme=7 / psy=1 / psy_rd=1.00:0.00 / mixed_ref=1 / me_range=16 / chroma_me=1 / trellis=1 / 8x8dct=1 / cqm=0 / deadzone=21,11 / fast_pskip=1 / chroma_qp_offset=-2 / threads=3 / sliced_threads=0 / nr=0 / decimate=1 / interlaced=0 / constrained_intra=0 / bframes=5 / b_pyramid=2 / b_adapt=2 / b_bias=0 / direct=1 / weightb=1 / open_gop=0 / weightp=2 / keyint=240 / keyint_min=23 / scenecut=40 / intra_refresh=0 / rc_lookahead=50 / rc=abr / mbtree=1 / bitrate=3384 / ratetol=1.0 / qcomp=0.60 / qpmin=3 / qpmax=51 / qpstep=4 / ip_ratio=1.40 / aq=1:1.00
Encoded date                             : UTC 2013-04-20 21:05:03
Tagged date                              : UTC 2013-04-20 07:52:26
Color primaries                          : BT.709
Transfer characteristics                 : BT.709
Matrix coefficients                      : BT.709

Audio
ID                                       : 2
Format                                   : AAC
Format/Info                              : Advanced Audio Codec
Format profile                           : LC
Codec ID                                 : 40
Duration                                 : 1h 50mn
Bit rate mode                            : Variable
Bit rate                                 : 384 Kbps
Maximum bit rate                         : 679 Kbps
Channel(s)                               : 6 channels
Channel positions                        : Front: L C R, Side: L R, LFE
Sampling rate                            : 48.0 KHz
Compression mode                         : Lossy
Delay relative to video                  : 83ms
Stream size                              : 303 MiB (10%)
Language                                 : English
Encoded date                             : UTC 2013-04-20 07:51:36
Tagged date                              : UTC 2013-04-20 07:52:26

Enjoy...

Requested by Devilys

Coming soon: The Duellist, The Secret in Their Eyes, Badlands and more.

[img]http://img211.imageshack.us/img211/8703/immortals2011720pbrripx.png[/img]
[img]http://img705.imageshack.us/img705/8703/immortals2011720pbrripx.png[/img]
[img]http://img811.imageshack.us/img811/8703/immortals2011720pbrripx.png[/img]
[img]http://img441.imageshack.us/img441/8703/immortals2011720pbrripx.png[/img]
[img]http://img17.imageshack.us/img17/8703/immortals2011720pbrripx.png[/img]
[img]http://img838.imageshack.us/img838/8703/immortals2011720pbrripx.png[/img]